<svg xmlns="http://www.w3.org/2000/svg" width="1022" height="1022" viewBox="0 0 1022 1022">
  <defs>
    <linearGradient id="jira-a" x1="98.031%" x2="58.888%" y1=".161%" y2="40.766%">
      <stop offset="18%" stop-color="#0052CC"/>
      <stop offset="100%" stop-color="#2684FF"/>
    </linearGradient>
    <linearGradient id="jira-b" x1="100.665%" x2="55.402%" y1=".455%" y2="44.727%">
      <stop offset="18%" stop-color="#0052CC"/>
      <stop offset="100%" stop-color="#2684FF"/>
    </linearGradient>
  </defs>
  <g fill="none">
    <path fill="#2684FF" d="M978.631112,0 L486.826668,0 C486.826668,58.8804184 510.21682,115.349248 551.851564,156.983991 C593.486308,198.618734 649.955136,222.008889 708.835556,222.008889 L799.431112,222.008889 L799.431112,309.475556 C799.509564,431.97662 898.796712,531.263772 1021.29778,531.342224 L1021.29778,42.6666668 C1021.29778,19.1025174 1002.19526,0 978.631112,0 Z"/>
    <path fill="url(#jira-a)" d="M735.288888,245.048889 L243.484444,245.048889 C243.562895,367.549955 342.850045,466.837104 465.351112,466.915556 L555.946668,466.915556 L555.946668,554.666668 C556.10362,677.167692 655.454428,776.391112 777.955556,776.391112 L777.955556,287.715556 C777.955556,264.151406 758.85304,245.048889 735.288888,245.048889 Z"/>
    <path fill="url(#jira-b)" d="M491.804444,489.955556 L0,489.955556 C0,612.56768 99.3967652,711.964444 222.008889,711.964444 L312.888889,711.964444 L312.888889,799.431112 C312.967068,921.82128 412.08114,1021.06259 534.471112,1021.29778 L534.471112,532.622224 C534.471112,509.058072 515.368592,489.955556 491.804444,489.955556 Z"/>
  </g>
</svg>
